<?xml version="1.0" encoding="utf-8"?>
<!-- Generator: Adobe Illustrator 28.0.0, SVG Export Plug-In . SVG Version: 6.00 Build 0)  -->
<svg version="1.1" id="Layer_1" xmlns="http://www.w3.org/2000/svg" xmlns:xlink="http://www.w3.org/1999/xlink" x="0px" y="0px"
	 viewBox="0 0 128 128" style="enable-background:new 0 0 128 128;" xml:space="preserve">
<style type="text/css">
	.st0{filter:url(#drop-shadow);}
	.st1{fill:#B1740F;}
	.st2{fill:url(#SVGID_1_);}
	.st3{display:none;}
	.st4{opacity:0.8;}
	.st5{fill:#FFFFFF;stroke:#1C1C1C;stroke-width:5.25;stroke-linejoin:round;stroke-miterlimit:14;}
</style>
<filter  height="1.4" id="drop-shadow" width="1.4" x="-0.2" y="-0.2">
	<feGaussianBlur  in="SourceAlpha" stdDeviation="3"></feGaussianBlur>
	<feOffset  dx="2" dy="3"></feOffset>
	<feComponentTransfer>
		<feFuncA  slope="0.5" type="linear"></feFuncA>
	</feComponentTransfer>
	<feMerge>
		<feMergeNode></feMergeNode>
		<feMergeNode  in="SourceGraphic"></feMergeNode>
	</feMerge>
</filter>
<g class="st0">
	<circle class="st1" cx="64" cy="64" r="54"/>
	
		<radialGradient id="SVGID_1_" cx="-238.09" cy="457.19" r="0.5" gradientTransform="matrix(100 0 0 -100 23873 45783)" gradientUnits="userSpaceOnUse">
		<stop  offset="0" style="stop-color:#FEEB9A"/>
		<stop  offset="1" style="stop-color:#D4A017"/>
	</radialGradient>
	<circle class="st2" cx="64" cy="64" r="50"/>
	<circle class="st3" cx="64" cy="64" r="50"/>
</g>
<g transform="translate(64, 64)" class="st4">
	<g>
		<path class="st1" d="M-2.5,0v-28c0-1.4,1.1-2.5,2.5-2.5s2.5,1.1,2.5,2.5V0H-2.5z"/>
		<path class="st1" d="M0-2.5h28c1.4,0,2.5,1.1,2.5,2.5S29.4,2.5,28,2.5H0V-2.5z"/>
		<path class="st1" d="M2.5,0v28c0,1.4-1.1,2.5-2.5,2.5s-2.5-1.1-2.5-2.5V0H2.5z"/>
		<path class="st1" d="M0,2.5h-28c-1.4,0-2.5-1.1-2.5-2.5s1.1-2.5,2.5-2.5H0V2.5z"/>
	</g>
	<g transform="scale(0.8)">
		<path class="st1" d="M-1.8-1.8L18-21.6c1-1,2.6-1,3.5,0s1,2.6,0,3.5L1.8,1.8L-1.8-1.8z"/>
		<path class="st1" d="M1.8-1.8L21.6,18c1,1,1,2.6,0,3.5s-2.6,1-3.5,0L-1.8,1.8L1.8-1.8z"/>
		<path class="st1" d="M1.8,1.8L-18,21.6c-1,1-2.6,1-3.5,0s-1-2.6,0-3.5L-1.8-1.8L1.8,1.8z"/>
		<path class="st1" d="M-1.8,1.8L-21.6-18c-1-1-1-2.6,0-3.5s2.6-1,3.5,0L1.8-1.8L-1.8,1.8z"/>
	</g>
	<circle class="st1" cx="0" cy="0" r="5"/>
</g>
<path class="st5" d="M71.2,73.4l16.1,37.9l7.2-13.6l14.8,11.3l5.5-8.5l-14-10l11.5-8.1L71.2,73.4z"/>
</svg>
